<?xml version="1.0" encoding="UTF-8"?>
<svg width="973px" height="564px" viewBox="0 0 973 564" version="1.1" xmlns="http://www.w3.org/2000/svg" xmlns:xlink="http://www.w3.org/1999/xlink">
    <title>undraw_mobile_wireframe_euf4</title>
    <g id="Dekstop" stroke="none" stroke-width="1" fill="none" fill-rule="evenodd">
        <g id="undraw_mobile_wireframe_euf4" fill-rule="nonzero">
            <rect id="Rectangle" fill="#3F3D56" x="0" y="501.56206" width="963.50956" height="2.24072"></rect>
            <path d="M124.67794,96.69413 C116.40494,77.17387 95.34534,73.48728 95.34534,73.48728 C95.34534,73.48728 75.06806,68.07775 58.13386,93.84042 C42.34986,117.85335 21.99535,140.35134 47.80886,149.93607 L54.62751,135.61584 L55.44551,152.09611 C59.1991628,152.877814 62.9927815,153.453514 66.80935,153.82063 C95.44153,156.72938 122.43183,161.56581 122.93171,151.21832 C123.59625,137.4628 132.63826,115.47653 124.67794,96.69413 Z" id="Path" fill="#2F2E41"></path>
            <path d="M37.3241,253.01639 L35.48171,299.99739 C35.48171,299.99739 16.13659,337.76639 31.79693,336.84524 C47.45727,335.92409 45.61487,299.99739 45.61487,299.99739 L51.14205,255.77997 L37.3241,253.01639 Z" id="Path" fill="#A0616A"></path>
            <path d="M143.26166,244.72562 L148.78884,291.70662 C148.78884,291.70662 165.37037,316.57891 152.47362,324.86968 C139.57687,333.16045 139.57688,295.3914 139.57688,295.3914 L125.75894,247.4892 L143.26166,244.72562 Z" id="Path" fill="#A0616A"></path>
            <path d="M123.91654,332.23926 L107.33501,396.72299 C107.33501,396.72299 99.96544,422.51648 89.83229,435.41323 L86.1475,442.7828 L71.40836,440.9404 L81.54152,399.48658 L87.98989,323.02729 L123.91654,332.23926 Z" id="Path" fill="#A0616A"></path>
            <path d="M123.50818,332.23926 L106.92665,396.72299 C106.92665,396.72299 99.55708,422.51648 89.42393,435.41323 L85.73914,442.7828 L71,440.9404 L81.13316,399.48658 L87.58153,323.02729 L123.50818,332.23926 Z" id="Path" fill="#000000" opacity="0.1"></path>
            <path d="M67.76192,430.65591 L92.95467,436.48891 L82.57176,460.96505 C82.57176,460.96505 86.79176,475.61799 82.7719,483.37782 C78.75204,491.13765 79.33213,505.2173 79.33213,505.2173 L73.87226,504.35736 C73.87226,504.35736 60.61609,529.3135 44.9531,522.18378 C29.29011,515.05406 45.94958,498.09437 45.94958,498.09437 C45.94958,498.09437 59.4924,471.31829 61.21228,460.39855 C62.93216,449.47881 67.76192,430.65591 67.76192,430.65591 Z" id="Path" fill="#2F2E41"></path>
            <path d="M67.76192,430.65591 L92.95467,436.48891 L82.57176,460.96505 C82.57176,460.96505 86.79176,475.61799 82.7719,483.37782 C78.75204,491.13765 79.33213,505.2173 79.33213,505.2173 L73.87226,504.35736 C73.87226,504.35736 60.61609,529.3135 44.9531,522.18378 C29.29011,515.05406 45.94958,498.09437 45.94958,498.09437 C45.94958,498.09437 59.4924,471.31829 61.21228,460.39855 C62.93216,449.47881 67.76192,430.65591 67.76192,430.65591 Z" id="Path" fill="#000000" opacity="0.1"></path>
            <path d="M46.53607,318.42131 L60.35401,387.51105 C60.35401,387.51105 55.74801,421.5953 61.2752,442.78282 L66.8024,463.04911 L85.2263,463.04911 L85.2263,388.43222 C85.2263,388.43222 86.1475,327.63328 83.38391,323.02729 C80.62032,318.42131 46.53607,318.42131 46.53607,318.42131 Z" id="Path" fill="#A0616A"></path>
            <path d="M88.91109,455.67954 L63.1176,457.52194 L69.56597,483.31543 C69.56597,483.31543 63.1176,497.13337 65.88118,505.42414 C68.64476,513.71491 65.88118,527.53284 65.88118,527.53284 L71.4084,527.53284 C71.4084,527.53284 80.6204,554.24753 97.20189,549.64155 C113.78338,545.03557 99.96548,525.69045 99.96548,525.69045 C99.96548,525.69045 90.75348,497.13337 90.75348,486.07902 C90.75348,475.02467 88.91109,455.67954 88.91109,455.67954 Z" id="Path" fill="#2F2E41"></path>
            <circle id="Oval" fill="#A0616A" cx="95.35946" cy="112.07338" r="24.8723"></circle>
            <path d="M78.31733,121.74593 C78.31733,121.74593 80.15973,153.0666 74.63255,154.90899 C69.10537,156.75138 103.18963,154.90899 103.18963,154.90899 C103.18963,154.90899 98.58363,135.56387 103.18963,130.0367 C107.79563,124.50953 78.31733,121.74593 78.31733,121.74593 Z" id="Path" fill="#A0616A"></path>
            <path d="M103.65023,149.84242 C103.65023,149.84242 79.69913,148.00002 75.09315,149.84242 C70.48717,151.68482 57.5904,160.89677 57.5904,160.89677 L64.03877,218.93213 L116.54695,229.98648 L124.83772,218.01093 L133.12848,200.5082 L129.4437,178.3995 L128.5225,165.50275 L103.65023,149.84242 Z" id="Path" fill="#7A00FF"></path>
            <path d="M52.9844,164.58155 C52.9844,164.58155 41.00885,167.34514 40.08765,176.5571 C39.16645,185.76906 39.16646,208.79897 40.08765,212.48375 C41.00884,216.16853 40.08765,218.01093 39.16646,218.93213 C38.24527,219.85333 36.40287,218.01093 38.24526,220.77452 C40.08765,223.53811 40.08765,223.53811 39.16646,226.3017 C38.24527,229.06529 35.48167,225.3805 37.32406,229.98648 C39.16645,234.59246 40.08765,235.51366 39.16646,236.43486 C38.24527,237.35606 35.48167,258.54356 35.48167,258.54356 L51.14201,261.30715 L66.8024,206.95658 L52.9844,164.58155 Z" id="Path" fill="#7A00FF"></path>
            <path d="M124.83774,164.58155 C128.400428,164.780349 131.574732,166.896555 133.1285,170.10873 C135.89209,175.63591 143.26166,211.56256 142.3405,214.32615 C141.41934,217.08974 139.57691,213.40495 141.4193,218.93215 C143.26169,224.45935 141.4193,223.53815 142.3405,227.22291 C143.2617,230.90767 138.65571,227.22291 142.3405,230.9077 C146.02529,234.59249 147.86767,235.5137 146.02528,237.35607 C144.18289,239.19844 141.41928,235.51368 144.18289,239.19846 C146.94648,242.88324 146.94648,248.41046 146.94648,248.41046 L124.83777,253.01646 L118.3894,201.42946 L124.83774,164.58155 Z" id="Path" fill="#7A00FF"></path>
            <path d="M50.1007,163.11675 L54.62616,160.85402 C55.5503988,160.391902 56.6209601,160.318194 57.5998111,160.649285 C58.578662,160.980375 59.384665,161.68882 59.83861,162.6171 L80.62032,205.11419 L103.65023,219.85332 L120.23176,212.48375 C120.23176,212.48375 132.20731,194.05983 128.52252,184.84787 C126.02421,178.60209 123.09752,168.99241 121.47172,163.45147 C121.276537,162.783285 121.520428,162.064393 122.0819,161.652912 C122.643373,161.241431 123.402339,161.225366 123.98072,161.61272 L127.12057,163.70596 C128.125556,164.375948 128.826193,165.41483 129.07077,166.59765 L135.8921,199.58701 L126.6801,218.93213 L126.6801,237.35605 L133.12847,336.84524 C133.12847,336.84524 109.17737,333.16045 85.22627,328.55447 C61.27517,323.94849 30.8757,320.26371 30.8757,320.26371 C30.8757,320.26371 46.53604,239.19844 59.43278,225.3805 C59.43278,225.3805 59.43278,215.24734 61.27517,214.32615 C63.11756,213.40496 64.95996,206.95658 64.95996,206.95658 L48.27375,168.11052 C47.4637453,166.224788 48.2650267,164.034572 50.1007,163.11675 Z" id="Path" fill="#2F2E41"></path>
            <polygon id="Path" fill="#2F2E41" points="120 89.602 98.895 78.547 69.749 83.07 63.719 109.703 78.73 109.125 82.923 99.341 82.923 108.964 89.85 108.698 93.87 93.12 96.382 109.703 121.005 109.2"></polygon>
            <ellipse id="Oval" fill="#A0616A" cx="70.02656" cy="112.07338" rx="2.76359" ry="4.83628"></ellipse>
            <rect id="Rectangle" fill="#3F3D56" x="188.3847" y="0" width="622" height="319.00594"></rect>
            <path d="M455.02878,175.73652 L326.06872,175.73652 C325.681354,175.73652 325.309824,175.582785 325.035915,175.308875 C324.762005,175.034966 324.60827,174.663436 324.60827,174.27607 L324.60827,122.69262 C324.60827,122.305255 324.762006,121.933726 325.035915,121.659818 C325.309825,121.38591 325.681355,121.23218 326.06872,121.23218 L455.02878,121.23218 C455.416182,121.23218 455.787782,121.385749 456.061716,121.659684 C456.335651,121.933618 456.48922,122.305218 456.48922,122.69262 L456.48922,174.27605 C456.48922,174.663456 456.335659,175.035062 456.061724,175.309003 C455.787789,175.582943 455.416186,175.73652 455.02878,175.73652 Z M327.52917,172.81563 L453.56833,172.81563 L453.56833,124.15305 L327.52917,124.15305 L327.52917,172.81563 Z" id="Shape" fill="#FFFFFF"></path>
            <path d="M380.87685,209.58923 L326.06872,209.58923 C325.681354,209.58923 325.309824,209.435495 325.035915,209.161585 C324.762005,208.887676 324.60827,208.516146 324.60827,208.12878 L324.60827,186.20496 C324.60827,185.817594 324.762005,185.446064 325.035915,185.172155 C325.309824,184.898245 325.681354,184.74451 326.06872,184.74451 L380.87685,184.74451 C381.264254,184.74451 381.635855,184.898084 381.90979,185.17202 C382.183726,185.445955 382.3373,185.817556 382.3373,186.20496 L382.3373,208.12878 C382.3373,208.516184 382.183726,208.887785 381.90979,209.16172 C381.635855,209.435656 381.264254,209.58923 380.87685,209.58923 L380.87685,209.58923 Z M327.52917,206.66834 L379.4164,206.66834 L379.4164,187.66541 L327.52917,187.66541 L327.52917,206.66834 Z" id="Shape" fill="#FFFFFF"></path>
            <path d="M455.02878,209.58923 L400.22065,209.58923 C399.833246,209.58923 399.461645,209.435656 399.18771,209.16172 C398.913774,208.887785 398.7602,208.516184 398.7602,208.12878 L398.7602,186.20496 C398.7602,185.817556 398.913774,185.445955 399.18771,185.17202 C399.461645,184.898084 399.833246,184.74451 400.22065,184.74451 L455.02878,184.74451 C455.416183,184.74451 455.787783,184.898084 456.061717,185.17202 C456.335651,185.445956 456.48922,185.817557 456.48922,186.20496 L456.48922,208.12878 C456.48922,208.516183 456.335651,208.887784 456.061717,209.16172 C455.787783,209.435656 455.416183,209.58923 455.02878,209.58923 Z M401.68109,206.66834 L453.56833,206.66834 L453.56833,187.66541 L401.68109,187.66541 L401.68109,206.66834 Z" id="Shape" fill="#FFFFFF"></path>
            <path d="M453.41715,174.1249 C453.234583,174.1249 453.05366,174.090397 452.88374,174.02363 L325.53532,124.05181 C325.04973,123.861243 324.702693,123.426092 324.624934,122.910275 C324.547175,122.394458 324.750508,121.87634 325.158339,121.55109 C325.56617,121.225841 326.11654,121.142873 326.60213,121.33344 L453.95056,171.30526 C454.603748,171.56172 454.982174,172.246514 454.851736,172.936016 C454.721298,173.625518 454.118881,174.1249 453.41715,174.1249 Z" id="Path" fill="#FFFFFF"></path>
            <path d="M326.0694,175.736521 C325.369103,175.736521 324.767097,175.240152 324.634449,174.552533 C324.501802,173.864913 324.875844,173.179906 325.52602,172.91974 L454.48678,121.33629 C455.235342,121.039138 456.083179,121.403993 456.382021,122.151882 C456.680863,122.899772 456.317922,123.74843 455.57071,124.04896 L326.6114,175.63241 C326.439035,175.701392 326.255056,175.736521 326.0694,175.736521 Z" id="Path" fill="#FFFFFF"></path>
            <path d="M380.07104,208.78342 C379.888012,208.78342 379.706623,208.748932 379.53621,208.68216 L326.33899,187.72531 C325.589859,187.428538 325.222471,186.581246 325.517858,185.831568 C325.813246,185.08189 326.659857,184.712938 327.41008,185.00694 L380.60587,205.96379 C381.258874,206.220682 381.636886,206.905663 381.506115,207.595088 C381.375344,208.284513 380.772757,208.78342 380.07104,208.78342 L380.07104,208.78342 Z" id="Path" fill="#FFFFFF"></path>
            <path d="M326.87453,208.78342 C326.165711,208.78342 325.559117,208.274759 325.436097,207.576697 C325.313076,206.878636 325.709168,206.19305 326.37536,205.95095 L379.57186,186.60716 C380.062672,186.426167 380.612809,186.521597 381.013988,186.857321 C381.415167,187.193044 381.60607,187.717748 381.514421,188.232777 C381.422771,188.747807 381.062578,189.174443 380.57021,189.35116 L327.37371,208.69495 C327.213748,208.753321 327.044809,208.78342 326.87453,208.78342 L326.87453,208.78342 Z" id="Path" fill="#FFFFFF"></path>
            <path d="M454.22296,208.78342 C454.047663,208.78342 453.873795,208.751887 453.70952,208.69071 L402.12607,189.34692 C401.370685,189.063355 400.9882,188.22112 401.271765,187.465735 C401.55533,186.71035 402.397565,186.327865 403.15295,186.61143 L454.7364,205.95523 C455.397598,206.203283 455.786634,206.888855 455.66049,207.583694 C455.534347,208.278532 454.929156,208.78342 454.22296,208.78342 L454.22296,208.78342 Z" id="Path" fill="#FFFFFF"></path>
            <path d="M402.63951,207.17179 C401.926108,207.171577 401.31729,206.65593 401.199662,205.952292 C401.082035,205.248655 401.490037,204.563026 402.16458,204.33079 L453.74803,186.59862 C454.241954,186.426299 454.790326,186.531405 455.18553,186.874143 C455.580734,187.216881 455.762365,187.744867 455.661657,188.258203 C455.560949,188.771539 455.193295,189.191764 454.69789,189.35978 L403.1144,207.09192 C402.961633,207.144715 402.801142,207.17179 402.63951,207.17179 L402.63951,207.17179 Z" id="Path" fill="#FFFFFF"></path>
            <path d="M246.4744,93.45221 C237.613962,93.45221 229.62598,88.1148104 226.235238,79.9288327 C222.844496,71.7428549 224.718743,62.3203876 230.98402,56.0551133 C237.249298,49.7898389 246.671766,47.9155962 254.857742,51.3063419 C263.043718,54.6970875 268.38111,62.685072 268.38111,71.54551 C268.367652,83.6386713 258.567561,93.4387574 246.4744,93.45221 Z M246.4744,52.55969 C238.795352,52.55969 231.87243,57.1854299 228.933782,64.2799443 C225.995135,71.3744587 227.619479,79.5406 233.049384,84.9705085 C238.47929,90.4004171 246.645431,92.0247651 253.739946,89.0861215 C260.834462,86.1474778 265.46021,79.2245583 265.46021,71.54551 C265.448351,61.0648513 256.955059,52.571555 246.4744,52.55969 Z" id="Shape" fill="#FFFFFF"></path>
            <path d="M391.05862,93.45221 C382.198182,93.45221 374.2102,88.1148104 370.819458,79.9288327 C367.428716,71.7428549 369.302963,62.3203876 375.56824,56.0551133 C381.833518,49.7898389 391.255986,47.9155962 399.441962,51.3063419 C407.627938,54.6970875 412.96533,62.685072 412.96533,71.54551 C412.952119,83.638774 403.151884,93.4390049 391.05862,93.45221 L391.05862,93.45221 Z M391.05862,52.55969 C383.379569,52.55969 376.456638,57.1854101 373.517981,64.2799235 C370.579324,71.3744369 372.20366,79.5405832 377.633564,84.9704979 C383.063467,90.4004127 391.22961,92.0247662 398.32413,89.0861243 C405.418649,86.1474825 410.0444,79.224561 410.0444,71.54551 C410.032288,61.064968 401.539162,52.5718244 391.05862,52.55969 L391.05862,52.55969 Z" id="Shape" fill="#FFFFFF"></path>
            <path d="M570.69363,93.45221 C561.833192,93.45221 553.84521,88.1148104 550.454468,79.9288327 C547.063726,71.7428549 548.937973,62.3203876 555.20325,56.0551133 C561.468528,49.7898389 570.890996,47.9155962 579.076972,51.3063419 C587.262948,54.6970875 592.60034,62.685072 592.60034,71.54551 C592.587135,83.6387763 582.786896,93.4390104 570.69363,93.45221 L570.69363,93.45221 Z M570.69363,52.55969 C563.014578,52.55969 556.091644,57.1854035 553.152984,64.2799166 C550.214324,71.3744297 551.838658,79.5405776 557.26856,84.9704944 C562.698463,90.4004112 570.864606,92.0247666 577.959127,89.0861253 C585.053648,86.147484 589.6794,79.2245619 589.6794,71.54551 C589.667282,61.0649741 581.174166,52.5718354 570.69363,52.55969 Z" id="Shape" fill="#FFFFFF"></path>
            <path d="M758.89592,93.45221 C750.035482,93.45221 742.0475,88.1148104 738.656758,79.9288327 C735.266016,71.7428549 737.140263,62.3203876 743.40554,56.0551133 C749.670818,49.7898389 759.093286,47.9155962 767.279262,51.3063419 C775.465238,54.6970875 780.80263,62.685072 780.80263,71.54551 C780.789425,83.6387763 770.989186,93.4390104 758.89592,93.45221 L758.89592,93.45221 Z M758.89592,52.55969 C748.410341,52.55969 739.9101,61.0599312 739.9101,71.54551 C739.9101,82.0310888 748.410341,90.53133 758.89592,90.53133 C769.381499,90.53133 777.88174,82.0310888 777.88174,71.54551 C777.869628,61.0649524 769.376478,52.5718024 758.89592,52.55969 L758.89592,52.55969 Z" id="Shape" fill="#FFFFFF"></path>
            <path d="M387.18359,78.30721 L387.18359,77.20189 L388.59412,75.83129 C391.99137,72.59948 393.52598,70.87946 393.54595,68.87563 C393.619555,68.1593376 393.363704,67.4484037 392.850536,66.9432793 C392.337367,66.4381549 391.62248,66.1935677 390.90744,66.27848 C389.864825,66.3168374 388.867385,66.713799 388.08353,67.40234 L387.51019,66.13444 C388.567108,65.2549812 389.900466,64.7766896 391.27541,64.78381 C392.345455,64.6887253 393.404752,65.0581302 394.183631,65.7979837 C394.962511,66.5378371 395.385833,67.5767642 395.34583,68.65028 C395.34583,71.10481 393.56591,73.0901 390.76339,75.78993 L389.69944,76.7726 L389.69944,76.81253 L395.67386,76.81253 L395.67386,78.30721 L387.18359,78.30721 Z" id="Path" fill="#FFFFFF"></path>
            <polygon id="Path" fill="#FFFFFF" points="245.9894 66.57371 245.94876 66.57371 243.63686 67.82165 243.28957 66.45106 246.19407 64.89648 247.72868 64.89648 247.72868 78.19453 245.9894 78.19453"></polygon>
            <path d="M760.20519,78.19383 L760.20519,74.57405 L754.02682,74.57405 L754.02682,73.38744 L759.95988,64.89716 L761.90382,64.89716 L761.90382,73.16209 L763.76503,73.16209 L763.76503,74.57409 L761.90382,74.57409 L761.90382,78.19383 L760.20519,78.19383 Z M760.20519,73.16212 L760.20519,68.72373 C760.20519,68.02773 760.22611,67.33173 760.26795,66.63573 L760.20519,66.63573 C759.79729,67.41445 759.46926,67.98636 759.1013,68.60106 L755.8481,73.12074 L755.8481,73.16212 L760.20519,73.16212 Z" id="Shape" fill="#FFFFFF"></path>
            <path d="M568.44448,76.12795 C569.337655,76.6563051 570.352092,76.9451597 571.38962,76.96656 C573.70295,76.96656 574.41891,75.49328 574.39752,74.38939 C574.37752,72.52674 572.69889,71.72949 570.96176,71.72949 L569.9577,71.72949 L569.9577,70.37886 L570.96176,70.37886 C572.27102,70.37886 573.92829,69.70426 573.92829,68.12829 C573.92829,67.06429 573.25229,66.12303 571.595,66.12303 C570.6416,66.149864 569.717121,66.4563695 568.93653,67.00443 L568.46587,65.69516 C569.499849,65.0211739 570.708756,64.6651547 571.94299,64.6710853 C574.56153,64.6710853 575.74814,66.22573 575.74814,67.84306 C575.719877,69.3174241 574.717621,70.5944044 573.2922,70.97219 L573.2922,71.01355 C574.991026,71.2594215 576.253269,72.7128228 576.25873,74.42934 C576.25873,76.55726 574.60146,78.4199 571.41102,78.4199 C570.198573,78.4355646 569.004312,78.1241902 567.95386,77.51853 L568.44448,76.12795 Z" id="Path" fill="#FFFFFF"></path>
            <path d="M639.04512,208.1287 L510.08507,208.1287 C509.697666,208.1287 509.326065,207.975126 509.05213,207.70119 C508.778194,207.427255 508.62462,207.055654 508.62462,206.66825 L508.62462,124.15298 C508.62462,123.765577 508.778194,123.393977 509.05213,123.120043 C509.326066,122.846109 509.697667,122.69254 510.08507,122.69254 L639.04512,122.69254 C639.432523,122.69254 639.804124,122.846109 640.07806,123.120043 C640.351996,123.393977 640.50557,123.765577 640.50557,124.15298 L640.50557,206.66825 C640.50557,207.055654 640.351996,207.427255 640.07806,207.70119 C639.804125,207.975126 639.432524,208.1287 639.04512,208.1287 Z M511.54552,205.2078 L637.58468,205.2078 L637.58468,125.61343 L511.54552,125.61343 L511.54552,205.2078 Z" id="Shape" fill="#FFFFFF"></path>
            <path d="M615.96749,140.94813 L537.10334,140.94813 C536.296756,140.94813 535.64289,140.294264 535.64289,139.48768 C535.64289,138.681096 536.296756,138.02723 537.10334,138.02723 L615.96749,138.02723 C616.774074,138.02723 617.42794,138.681096 617.42794,139.48768 C617.42794,140.294264 616.774074,140.94813 615.96749,140.94813 Z" id="Path" fill="#FFFFFF"></path>
            <path d="M615.96749,154.092155 L537.10334,154.092155 C536.580663,154.093518 536.097103,153.815458 535.835369,153.363033 C535.573635,152.910608 535.573635,152.352802 535.835369,151.900377 C536.097103,151.447952 536.580663,151.169892 537.10334,151.171255 L615.96749,151.171255 C616.774072,151.171255 617.427935,151.825123 617.427935,152.631705 C617.427935,153.438287 616.774072,154.092155 615.96749,154.092155 L615.96749,154.092155 Z" id="Path" fill="#FFFFFF"></path>
            <path d="M615.96749,167.23618 L537.10334,167.23618 C536.296756,167.23618 535.64289,166.582314 535.64289,165.77573 C535.64289,164.969146 536.296756,164.31528 537.10334,164.31528 L615.96749,164.31528 C616.774074,164.31528 617.42794,164.969146 617.42794,165.77573 C617.42794,166.582314 616.774074,167.23618 615.96749,167.23618 Z" id="Path" fill="#FFFFFF"></path>
            <path d="M615.96749,180.380205 L537.10334,180.380205 C536.580663,180.381568 536.097103,180.103508 535.835369,179.651083 C535.573635,179.198658 535.573635,178.640852 535.835369,178.188427 C536.097103,177.736002 536.580663,177.457942 537.10334,177.459305 L615.96749,177.459305 C616.774072,177.459305 617.427935,178.113173 617.427935,178.919755 C617.427935,179.726337 616.774072,180.380205 615.96749,180.380205 L615.96749,180.380205 Z" id="Path" fill="#FFFFFF"></path>
            <path d="M615.96749,193.524225 L537.10334,193.524225 C536.296758,193.524225 535.642895,192.870357 535.642895,192.063775 C535.642895,191.257193 536.296758,190.603325 537.10334,190.603325 L615.96749,190.603325 C616.490167,190.601962 616.973727,190.880022 617.235461,191.332447 C617.497195,191.784872 617.497195,192.342678 617.235461,192.795103 C616.973727,193.247528 616.490167,193.525588 615.96749,193.524225 Z" id="Path" fill="#FFFFFF"></path>
            <path d="M216.31094,126.74857 C217.119152,126.720569 217.759871,126.057267 217.759871,125.24857 C217.759871,124.439873 217.119152,123.776571 216.31094,123.74857 C215.502728,123.776571 214.862009,124.439873 214.862009,125.24857 C214.862009,126.057267 215.502728,126.720569 216.31094,126.74857 L216.31094,126.74857 Z" id="Path" fill="#FFFFFF"></path>
            <path d="M216.31094,142.81348 C217.119152,142.785479 217.759871,142.122177 217.759871,141.31348 C217.759871,140.504783 217.119152,139.841481 216.31094,139.81348 C215.502728,139.841481 214.862009,140.504783 214.862009,141.31348 C214.862009,142.122177 215.502728,142.785479 216.31094,142.81348 L216.31094,142.81348 Z" id="Path" fill="#FFFFFF"></path>
            <path d="M216.31094,158.8784 C217.119152,158.850399 217.759871,158.187097 217.759871,157.3784 C217.759871,156.569703 217.119152,155.906401 216.31094,155.8784 C215.502728,155.906401 214.862009,156.569703 214.862009,157.3784 C214.862009,158.187097 215.502728,158.850399 216.31094,158.8784 L216.31094,158.8784 Z" id="Path" fill="#FFFFFF"></path>
            <path d="M216.31094,174.94332 C217.119152,174.915319 217.759871,174.252017 217.759871,173.44332 C217.759871,172.634623 217.119152,171.971321 216.31094,171.94332 C215.502728,171.971321 214.862009,172.634623 214.862009,173.44332 C214.862009,174.252017 215.502728,174.915319 216.31094,174.94332 L216.31094,174.94332 Z" id="Path" fill="#FFFFFF"></path>
            <path d="M216.31094,191.00824 C217.119152,190.980239 217.759871,190.316937 217.759871,189.50824 C217.759871,188.699543 217.119152,188.036241 216.31094,188.00824 C215.502728,188.036241 214.862009,188.699543 214.862009,189.50824 C214.862009,190.316937 215.502728,190.980239 216.31094,191.00824 L216.31094,191.00824 Z" id="Path" fill="#FFFFFF"></path>
            <path d="M216.31094,207.07316 C217.119152,207.045159 217.759871,206.381857 217.759871,205.57316 C217.759871,204.764463 217.119152,204.101161 216.31094,204.07316 C215.502728,204.101161 214.862009,204.764463 214.862009,205.57316 C214.862009,206.381857 215.502728,207.045159 216.31094,207.07316 Z" id="Path" fill="#FFFFFF"></path>
            <path d="M277.14374,126.70877 L230.4094,126.70877 C229.602816,126.70877 228.94895,126.054904 228.94895,125.24832 C228.94895,124.441736 229.602816,123.78787 230.4094,123.78787 L277.14371,123.78787 C277.950294,123.78787 278.60416,124.441736 278.60416,125.24832 C278.60416,126.054904 277.950294,126.70877 277.14371,126.70877 L277.14374,126.70877 Z" id="Path" fill="#FFFFFF"></path>
            <path d="M277.14374,142.773685 L230.4094,142.773685 C229.886723,142.775048 229.403163,142.496988 229.141429,142.044563 C228.879695,141.592138 228.879695,141.034332 229.141429,140.581907 C229.403163,140.129482 229.886723,139.851422 230.4094,139.852785 L277.14371,139.852785 C277.666387,139.851422 278.149947,140.129482 278.411681,140.581907 C278.673415,141.034332 278.673415,141.592138 278.411681,142.044563 C278.149947,142.496988 277.666387,142.775048 277.14371,142.773685 L277.14374,142.773685 Z" id="Path" fill="#FFFFFF"></path>
            <path d="M277.14374,158.838605 L230.4094,158.838605 C229.602818,158.838605 228.948955,158.184737 228.948955,157.378155 C228.948955,156.571573 229.602818,155.917705 230.4094,155.917705 L277.14371,155.917705 C277.666387,155.916342 278.149947,156.194402 278.411681,156.646827 C278.673415,157.099252 278.673415,157.657058 278.411681,158.109483 C278.149947,158.561908 277.666387,158.839968 277.14371,158.838605 L277.14374,158.838605 Z" id="Path" fill="#FFFFFF"></path>
            <path d="M277.14374,174.903525 L230.4094,174.903525 C229.602818,174.903525 228.948955,174.249657 228.948955,173.443075 C228.948955,172.636493 229.602818,171.982625 230.4094,171.982625 L277.14371,171.982625 C277.666387,171.981262 278.149947,172.259322 278.411681,172.711747 C278.673415,173.164172 278.673415,173.721978 278.411681,174.174403 C278.149947,174.626828 277.666387,174.904888 277.14371,174.903525 L277.14374,174.903525 Z" id="Path" fill="#FFFFFF"></path>
            <path d="M277.14374,190.968445 L230.4094,190.968445 C229.602818,190.968445 228.948955,190.314577 228.948955,189.507995 C228.948955,188.701413 229.602818,188.047545 230.4094,188.047545 L277.14371,188.047545 C277.666387,188.046182 278.149947,188.324242 278.411681,188.776667 C278.673415,189.229092 278.673415,189.786898 278.411681,190.239323 C278.149947,190.691748 277.666387,190.969808 277.14371,190.968445 L277.14374,190.968445 Z" id="Path" fill="#FFFFFF"></path>
            <path d="M277.14374,207.033365 L230.4094,207.033365 C229.886723,207.034728 229.403163,206.756668 229.141429,206.304243 C228.879695,205.851818 228.879695,205.294012 229.141429,204.841587 C229.403163,204.389162 229.886723,204.111102 230.4094,204.112465 L277.14371,204.112465 C277.666387,204.111102 278.149947,204.389162 278.411681,204.841587 C278.673415,205.294012 278.673415,205.851818 278.411681,206.304243 C278.149947,206.756668 277.666387,207.034728 277.14371,207.033365 L277.14374,207.033365 Z" id="Path" fill="#FFFFFF"></path>
            <path d="M774.6157,213.70236 L743.17758,213.70236 C738.847741,213.697924 735.3386,210.189418 735.33338,205.85958 L735.33338,124.96022 C735.338706,120.630659 738.848017,117.122627 743.17758,117.11884 L746.99128,117.11884 C747.476706,117.11884 747.930484,117.35977 748.202122,117.762077 C748.47376,118.164384 748.527751,118.675367 748.34619,119.12556 C748.14811,119.610497 748.204072,120.162178 748.495499,120.597459 C748.786926,121.032741 749.275681,121.294661 749.79951,121.29627 L767.72279,121.29627 C768.246121,121.295346 768.734791,121.034453 769.02673,120.600117 C769.31867,120.165781 769.37572,119.614775 769.17896,119.12984 C768.995379,118.67966 769.047965,118.167627 769.319218,117.764159 C769.59047,117.360691 770.044787,117.11884 770.53096,117.11884 L774.61565,117.11884 C778.944718,117.123221 782.45325,120.631113 782.45842,124.96018 L782.45842,205.85954 C782.453361,210.188874 778.945034,213.697246 774.6157,213.70236 L774.6157,213.70236 Z M743.17758,120.03977 C740.460736,120.042446 738.258525,122.243378 738.25427,124.96022 L738.25427,205.85958 C738.257896,208.576914 740.460245,210.778623 743.17758,210.78146 L774.6157,210.78146 C777.332752,210.7785 779.53462,208.576632 779.53758,205.85958 L779.53758,124.96022 C779.53397,122.243669 777.332252,120.042591 774.6157,120.03977 L772.20396,120.03977 C772.035385,122.39122 770.080272,124.213794 767.72279,124.21716 L749.79951,124.21716 C747.442319,124.213699 745.487667,122.390976 745.31976,120.03977 L743.17758,120.03977 Z" id="Shape" fill="#FFFFFF"></path>
            <path d="M712.35701,167.23618 L671.46448,167.23618 C670.657896,167.23618 670.00403,166.582314 670.00403,165.77573 C670.00403,164.969146 670.657896,164.31528 671.46448,164.31528 L708.8314,164.31528 L700.37107,155.85496 C699.800789,155.284682 699.800787,154.360076 700.371065,153.789795 C700.941343,153.219514 701.865949,153.219512 702.43623,153.78979 L713.38959,164.74315 C713.807291,165.160788 713.932267,165.788929 713.706236,166.334645 C713.480205,166.880361 712.947684,167.23618 712.35701,167.23618 L712.35701,167.23618 Z" id="Path" fill="#FFFFFF"></path>
            <path d="M702.13388,177.459311 C701.543265,177.459311 701.01085,177.10339 700.78484,176.55773 C700.55883,176.012069 700.683721,175.383996 701.10129,174.96631 L711.3244,164.74315 C711.894678,164.172869 712.819284,164.172867 713.389565,164.743145 C713.959846,165.313423 713.959848,166.238029 713.38957,166.80831 L703.16644,177.03144 C702.892897,177.305775 702.521288,177.459761 702.13388,177.459311 L702.13388,177.459311 Z" id="Path" fill="#FFFFFF"></path>
            <path d="M784.35298,290.15822 L736.60213,290.15822 C733.34351,271.320198 733.34351,252.062532 736.60213,233.22451 L784.35298,233.22451 C778.973467,251.821192 778.973467,271.561538 784.35298,290.15822 L784.35298,290.15822 Z" id="Path" fill="#FF6584"></path>
            <path d="M519.22821,280.3696 L566.97906,280.3696 C570.23768,261.531578 570.23768,242.273912 566.97906,223.43589 L519.22821,223.43589 C524.60773,242.032571 524.60773,261.772919 519.22821,280.3696 L519.22821,280.3696 Z" id="Path" fill="#7A00FF"></path>
            <path d="M591.89752,296.38148 L639.6484,296.38148 C642.90702,277.543458 642.90702,258.285792 639.6484,239.44777 L591.89752,239.44777 C597.277033,258.044452 597.277033,277.784798 591.89752,296.38148 Z" id="Path" fill="#7A00FF"></path>
            <path d="M559.44498,240.02362 L530.38771,240.02362 C529.88625,240.02362 529.47971,239.37041 529.47971,238.56317 C529.47971,237.75593 529.88628,237.10272 530.38771,237.10272 L559.44498,237.10272 C559.94644,237.10272 560.35298,237.75593 560.35298,238.56317 C560.35298,239.37041 559.9464,240.02362 559.44498,240.02362 Z" id="Path" fill="#FFFFFF"></path>
            <path d="M559.44498,253.57213 L530.38771,253.57213 C529.88625,253.57213 529.47971,252.91892 529.47971,252.11168 C529.47971,251.30444 529.88628,250.65124 530.38771,250.65124 L559.44498,250.65124 C559.94644,250.65124 560.35298,251.30445 560.35298,252.11168 C560.35298,252.91891 559.9464,253.57213 559.44498,253.57213 Z" id="Path" fill="#FFFFFF"></path>
            <path d="M632.11429,262.19391 L603.05702,262.19391 C602.55556,262.19391 602.14902,261.54071 602.14902,260.73347 C602.14902,259.92623 602.5556,259.27302 603.05702,259.27302 L632.11429,259.27302 C632.61575,259.27302 633.02229,259.92623 633.02229,260.73347 C633.02229,261.54071 632.61575,262.19391 632.11429,262.19391 Z" id="Path" fill="#FFFFFF"></path>
            <path d="M632.11429,275.74243 L603.05702,275.74243 C602.55556,275.74243 602.14902,275.08922 602.14902,274.28198 C602.14902,273.47474 602.5556,272.82153 603.05702,272.82153 L632.11429,272.82153 C632.61575,272.82153 633.02229,273.47474 633.02229,274.28198 C633.02229,275.08922 632.61575,275.74243 632.11429,275.74243 Z" id="Path" fill="#FFFFFF"></path>
            <path d="M773.75785,248.6454 L744.70059,248.6454 C744.19912,248.6454 743.79259,247.99219 743.79259,247.18495 C743.79259,246.37771 744.19916,245.7245 744.70059,245.7245 L773.75785,245.7245 C774.25932,245.7245 774.66585,246.37771 774.66585,247.18495 C774.66585,247.99219 774.25932,248.6454 773.75785,248.6454 Z" id="Path" fill="#FFFFFF"></path>
            <path d="M773.75785,262.19391 L744.70059,262.19391 C744.19912,262.19391 743.79259,261.54071 743.79259,260.73347 C743.79259,259.92623 744.19916,259.27302 744.70059,259.27302 L773.75785,259.27302 C774.25932,259.27302 774.66585,259.92623 774.66585,260.73347 C774.66585,261.54071 774.25932,262.19391 773.75785,262.19391 Z" id="Path" fill="#FFFFFF"></path>
            <path d="M559.44498,267.12065 L530.38771,267.12065 C529.88625,267.12065 529.47971,266.46744 529.47971,265.6602 C529.47971,264.85296 529.88628,264.19975 530.38771,264.19975 L559.44498,264.19975 C559.94644,264.19975 560.35298,264.85296 560.35298,265.6602 C560.35298,266.46744 559.9464,267.12065 559.44498,267.12065 Z" id="Path" fill="#FFFFFF"></path>
            <path d="M279.04999,281.60128 L326.80085,281.60128 C330.05946,262.763257 330.05946,243.505593 326.80085,224.66757 L279.04999,224.66757 C284.42951,243.264251 284.42951,263.004599 279.04999,281.60128 L279.04999,281.60128 Z" id="Path" fill="#7A00FF"></path>
            <path d="M319.26676,241.2553 L290.2095,241.2553 C289.70804,241.2553 289.3015,240.60209 289.3015,239.79485 C289.3015,238.98761 289.70808,238.33441 290.2095,238.33441 L319.26676,238.33441 C319.76823,238.33441 320.17476,238.98761 320.17476,239.79485 C320.17476,240.60209 319.76823,241.2553 319.26676,241.2553 Z" id="Path" fill="#FFFFFF"></path>
            <path d="M319.26676,254.80381 L290.2095,254.80381 C289.70804,254.80381 289.3015,254.15061 289.3015,253.34337 C289.3015,252.53613 289.70808,251.88292 290.2095,251.88292 L319.26676,251.88292 C319.76823,251.88292 320.17476,252.53613 320.17476,253.34337 C320.17476,254.15061 319.76823,254.80381 319.26676,254.80381 Z" id="Path" fill="#FFFFFF"></path>
            <path d="M319.26676,268.35233 L290.2095,268.35233 C289.70804,268.35233 289.3015,267.69912 289.3015,266.89188 C289.3015,266.08464 289.70808,265.43144 290.2095,265.43144 L319.26676,265.43144 C319.76823,265.43144 320.17476,266.08464 320.17476,266.89188 C320.17476,267.69912 319.76823,268.35233 319.26676,268.35233 Z" id="Path" fill="#FFFFFF"></path>
            <path d="M142.04999,371.60128 L189.80085,371.60128 C193.05946,352.763257 193.05946,333.505593 189.80085,314.66757 L142.04999,314.66757 C147.42951,333.264251 147.42951,353.004599 142.04999,371.60128 L142.04999,371.60128 Z" id="Path" fill="#7A00FF"></path>
            <path d="M182.26676,331.2553 L153.2095,331.2553 C152.70804,331.2553 152.3015,330.60209 152.3015,329.79485 C152.3015,328.98761 152.70808,328.33441 153.2095,328.33441 L182.26676,328.33441 C182.76823,328.33441 183.17476,328.98761 183.17476,329.79485 C183.17476,330.60209 182.76823,331.2553 182.26676,331.2553 Z" id="Path" fill="#FFFFFF"></path>
            <path d="M182.26676,344.80381 L153.2095,344.80381 C152.70804,344.80381 152.3015,344.15061 152.3015,343.34337 C152.3015,342.53613 152.70808,341.88292 153.2095,341.88292 L182.26676,341.88292 C182.76823,341.88292 183.17476,342.53613 183.17476,343.34337 C183.17476,344.15061 182.76823,344.80381 182.26676,344.80381 Z" id="Path" fill="#FFFFFF"></path>
            <path d="M182.26676,358.35233 L153.2095,358.35233 C152.70804,358.35233 152.3015,357.69912 152.3015,356.89188 C152.3015,356.08464 152.70808,355.43144 153.2095,355.43144 L182.26676,355.43144 C182.76823,355.43144 183.17476,356.08464 183.17476,356.89188 C183.17476,357.69912 182.76823,358.35233 182.26676,358.35233 Z" id="Path" fill="#FFFFFF"></path>
            <path d="M802.64212,265.68581 C802.64212,265.68581 773.30388,288.73728 787.973,293.97625 C802.64212,299.21522 812.07227,275.11596 812.07227,275.11596 L802.64212,265.68581 Z" id="Path" fill="#FFB8B8"></path>
            <path d="M803.68992,257.30345 L797.40315,267.7814 C797.40315,267.7814 807.88109,267.7814 809.97668,283.49831 L818.35904,273.02037 L803.68992,257.30345 Z" id="Path" fill="#CFCCE0"></path>
            <polygon id="Path" fill="#FFB8B8" points="943.047 496.201 944.094 527.634 931.521 534.969 926.282 531.826 927.33 496.201"></polygon>
            <path d="M868.65316,487.8182 L870.74875,521.34762 L841.41051,533.92115 L843.5061,516.10864 C843.5061,516.10864 851.88845,502.48732 849.79286,487.8182 L868.65316,487.8182 Z" id="Path" fill="#FFB8B8"></path>
            <path d="M913.70832,235.29977 C913.70832,235.29977 930.47302,279.30713 933.61641,306.54977 C936.7598,333.79241 941.99876,406.09022 941.99876,406.09022 L952.47671,499.34392 L923.13846,503.53509 L910.56493,409.23361 L882.27449,315.97991 L875.98772,409.23361 L870.74872,494.10494 L843.50607,495.15274 L841.41051,407.13805 L829.88477,295.02405 L836.17154,241.58654 L913.70832,235.29977 Z" id="Path" fill="#2F2E41"></path>
            <path d="M929.42523,529.72997 C929.42523,529.72997 931.14378,512.13217 943.90583,521.97886 L946.18994,520.29986 L956.66788,543.35134 C956.66788,543.35134 969.24141,561.16384 947.23773,563.25943 C925.23405,565.35502 927.32964,543.35134 927.32964,543.35134 L925.23405,533.92119 L926.28185,527.7458 L929.42523,529.72997 Z" id="Path" fill="#2F2E41"></path>
            <path d="M868.65316,508.77405 C873.905483,511.777077 877.114857,517.393478 877.03552,523.44317 C877.03552,533.92112 875.98772,534.96891 875.98772,534.96891 L860.27081,539.16009 C860.27081,539.16009 849.79286,538.11229 843.5061,544.39909 C837.21934,550.68589 805.7855,554.87703 805.7855,546.49468 C805.7855,538.11233 831.9804,524.491 831.9804,524.491 C831.9804,524.491 839.75949,511.3537 845.3001,512.68338 C850.84071,514.01306 852.93629,516.10864 852.93629,517.15644 C852.93629,518.20424 849.7929,525.53879 849.7929,525.53879 C849.7929,525.53879 867.6054,521.34762 868.65316,508.77405 Z" id="Path" fill="#2F2E41"></path>
            <circle id="Oval" fill="#FFB8B8" cx="866.55757" cy="80.22622" r="26.19486"></circle>
            <path d="M885.94177,87.03688 L897.4675,113.23174 L866.03368,158.28689 C866.03368,158.28689 863.93809,109.04056 857.65132,100.65821 C851.36455,92.27586 885.94177,87.03688 885.94177,87.03688 Z" id="Path" fill="#FFB8B8"></path>
            <polygon id="Path" fill="#CFCCE0" points="871.273 141.522 876.512 127.901 880.703 128.949 885.942 124.757 893.276 101.706 903.754 109.041 917.376 246.302 832.504 248.397 844.03 153.048 854.508 125.805 862.071 115.807 867.081 131.044"></polygon>
            <path d="M895.37192,200.19867 L898.57815,105.41728 C898.57815,105.41728 904.80206,105.89718 906.89765,109.04056 C908.99324,112.18394 943.57045,118.47071 943.57045,118.47071 L937.28369,215.91558 C937.28369,215.91558 963.47855,293.45236 954.0484,297.64358 C944.61825,301.8348 927.85354,300.78697 927.85354,300.78697 L895.37192,200.19867 Z" id="Path" fill="#575A89"></path>
            <path d="M844.55389,188.14905 L855.66919,124.27012 L830.93257,140.99831 L837.21933,187.10126 L831.9804,218.53505 C831.9804,218.53505 812.07231,305.50197 818.35908,308.64535 C824.64585,311.78873 831.9804,308.64535 831.9804,308.64535 L844.55393,220.63063 L844.55389,188.14905 Z" id="Path" fill="#575A89"></path>
            <path d="M838.26713,138.9027 L830.93257,140.99829 L827.78918,182.91005 L822.55018,219.58285 L797.40315,264.63805 C797.40315,264.63805 809.97668,256.2557 815.21565,280.35497 L842.90993,232.13845 L838.26713,138.9027 Z" id="Path" fill="#575A89"></path>
            <path d="M919.99508,257.30345 C919.99508,257.30345 890.65684,280.35493 905.32596,285.5939 C919.99508,290.83287 929.42523,266.7336 929.42523,266.7336 L919.99508,257.30345 Z" id="Path" fill="#FFB8B8"></path>
            <polygon id="Path" fill="#CFCCE0" points="937.808 268.829 928.377 280.355 915.804 258.351 921.043 248.921"></polygon>
            <path d="M935.712,122.13799 L944.09435,117.94681 C944.09435,117.94681 950.38112,126.32917 951.42891,133.66373 C952.4767,140.99829 957.71568,150.42844 957.71568,155.66741 C957.71568,160.90638 972.3848,210.15271 972.3848,210.15271 L938.8554,278.25934 C938.8554,278.25934 931.52084,253.11228 915.80392,251.01669 L941.99878,214.34389 L927.32964,188.14905 L935.712,122.13799 Z" id="Path" fill="#575A89"></path>
            <path d="M888.48665,55.26815 L893.42629,53.29059 C893.42629,53.29059 883.09797,41.91968 868.728,42.9085 L872.76964,38.45897 C872.76964,38.45897 862.89035,34.50391 853.90919,44.88597 C849.18796,50.34359 843.72546,56.75877 840.32019,63.98538 L835.03019,63.98538 L837.23804,68.84683 L829.51054,73.70828 L837.44207,72.83506 C836.969443,75.497245 836.896897,78.2150725 837.22683,80.89868 C837.567077,83.5831114 838.936962,86.0303478 841.04737,87.7239 L841.04737,87.7239 C841.04737,87.7239 847.1734,75.04358 847.1734,73.06605 L847.1734,78.00993 C847.1734,78.00993 852.11304,73.56046 852.11304,70.59416 L854.80737,74.05487 L856.15453,68.61658 L872.76966,74.05487 L870.07534,69.6054 L880.40366,71.08855 L876.36202,65.65026 C876.36202,65.65026 888.03751,72.07726 888.48667,77.51558 C888.93567,82.95379 892.35314,88.10685 892.35314,88.10685 C892.35314,88.10685 901.50933,62.68392 888.48665,55.26815 Z" id="Path" fill="#2F2E41"></path>
            <ellipse id="Oval" fill="#FFB8B8" cx="888.03735" cy="76.03505" rx="2.93382" ry="3.66728"></ellipse>
        </g>
    </g>
</svg>